<svg width="467" height="339" viewBox="0 0 467 339" fill="none" xmlns="http://www.w3.org/2000/svg">
<path d="M432.203 119.293C434.205 51.9718 364.912 5.88593 303.6 33.7611L299.435 35.6544C277.259 45.7368 260.699 65.4978 254.435 89.0394C242.046 135.599 191.637 161.55 146.841 143.809L130.948 137.515C64.794 111.316 2.9746 183.736 39.2325 244.958L44.3729 253.638C69.2708 295.678 129.057 298.527 157.84 259.045L168.816 243.989C184.457 222.534 214.358 217.474 236.187 232.588C241.994 236.609 248.602 239.324 255.558 240.547L261.775 241.641C266.912 242.545 272.128 242.929 277.342 242.788L334.212 241.248C387.216 239.812 429.885 197.256 431.461 144.256L432.203 119.293Z" fill="#2270E1"/>
</svg>
